<svg width="299" height="152" viewBox="0 0 299 152" fill="none" xmlns="http://www.w3.org/2000/svg">
<path opacity="0.2" d="M297.722 130.96C297.246 135.726 296.157 139.8 294.438 142.995C292.958 145.741 290.949 148.003 288.184 149.398C287.21 149.885 286.226 150.114 284.419 150.397H39.3751C38.554 150.126 18.4594 150.999 17.5124 150.599C7.22571 146.28 -11.2543 127.431 9.27892 95.1991C26.0172 68.924 5.64085 56.2655 28.9006 32.9127C55.4927 6.21571 101.737 35.3559 141.755 25.5133C170.088 18.5427 200.392 -7.95536 243.738 2.35139C282.692 11.6132 281.78 30.1299 283.338 57.9187C284.049 70.4926 286.943 76.6629 288.379 80.4427C288.38 80.4461 288.38 80.4461 288.383 80.4484C291.078 87.5413 293.111 94.1301 294.658 100.421C296.987 109.935 298.701 121.177 297.722 130.96Z" fill="#BDEEFF"/>
<path opacity="0.45" d="M294.635 100.44C293.089 94.1519 291.056 87.5654 288.36 80.4758C288.359 80.4735 288.359 80.4736 288.358 80.4701C287.3 77.6862 285.457 73.6493 284.256 66.5654H250.409V86.916H194.184V108.981H143.684V126.931H105.895V150.254H285.251C286.306 150.063 287.208 149.875 288.163 149.399C294.602 146.151 296.984 138.142 297.701 130.968C297.83 129.678 297.915 128.337 297.955 126.949C298.199 118.273 296.7 108.871 294.635 100.44Z" fill="#29ABE2"/>
<path d="M25.7783 150.1H29.6374C29.6087 149.898 29.5103 149.284 29.3293 148.717C29.2664 148.52 29.1942 148.328 29.1106 148.162C28.735 147.415 26.352 147.89 26.352 147.89C26.352 147.89 26.131 148.08 25.9581 148.803C25.8802 149.122 25.8127 149.545 25.7783 150.1Z" fill="#335599"/>
<path d="M32.8601 91.2529C32.8601 91.2529 35.9347 91.7914 36.6298 93.6035C37.3249 95.4157 41.2527 124.685 41.2527 124.685C41.2527 124.685 39.3082 126.224 35.1331 125.672C30.958 125.12 32.8601 91.2529 32.8601 91.2529Z" fill="#AEC3FF"/>
<path d="M37.4382 148.884C37.4485 149.407 37.5149 149.904 37.705 150.1H45.3373C45.2399 149.825 44.9651 149.41 44.1818 149.283C43.2909 149.139 41.903 148.711 41.0934 147.856C40.8049 147.552 40.5896 147.194 40.4957 146.774C40.1361 145.178 37.5264 147.264 37.5264 147.264C37.5264 147.264 37.4222 148.104 37.4382 148.884Z" fill="#335599"/>
<path d="M40.7271 148.109C39.874 148.381 38.2445 149.21 37.2081 148.82C36.5394 148.569 32.7983 137.765 32.5555 133.038C32.5372 132.694 32.4696 132.215 32.3643 131.631C32.1432 130.411 31.755 128.735 31.3085 126.886C30.1107 121.931 28.4914 115.732 28.5269 113.751C28.5808 110.676 37.7063 113.106 37.7063 113.106C37.7063 113.106 38.3338 115.628 38.4586 119.281C38.706 126.531 39.3873 138.777 41.2401 147.28C41.3191 147.64 41.081 147.996 40.7271 148.109Z" fill="#233862"/>
<path d="M34.3878 113.759L29.5634 148.665C29.5634 148.665 27.4449 149.174 25.7971 148.766C25.7971 148.766 24.3852 130.202 24.502 125.714C24.6199 121.226 23.4885 113.705 24.7596 112.875C26.033 112.046 34.3878 113.759 34.3878 113.759Z" fill="#2B478B"/>
<path d="M24.1515 92.8523C24.1515 92.8523 29.221 89.5791 32.8568 91.2529C33.4362 91.5193 34.0969 92.2636 34.5699 92.7849C35.8845 94.2312 38.4518 117.2 38.4518 117.2C38.4518 117.2 31.162 119.665 24.1504 116.363V92.8523H24.1515Z" fill="white"/>
<path d="M33.1523 91.1699C33.1523 91.1699 38.2848 93.2701 38.9799 94.8833C39.675 96.4965 41.9343 106.405 41.9343 107.567C41.9343 108.729 38.0008 107.826 37.3676 105.953C36.8419 104.397 35.0681 99.6165 34.1326 96.5925L33.1523 91.1699Z" fill="#AEC3FF"/>
<path d="M32.0875 92.7691C30.9676 92.9886 29.3209 92.7543 28.1162 91.962C28.6601 90.6643 28.8834 89.6399 28.9625 88.978C28.967 88.9425 28.9705 88.9082 28.9739 88.8751C29.0094 88.5321 29.0048 88.2989 28.9877 88.1914H31.8837C31.8837 88.1914 32.6761 88.5527 32.6761 88.8031C32.6761 88.9368 32.6773 89.0649 32.6795 89.1861C32.6853 89.5188 32.699 89.8091 32.7162 90.0584C32.7712 90.8701 32.8651 91.252 32.8651 91.252C32.8651 91.252 33.2189 92.5473 32.0875 92.7691Z" fill="#FFB27D"/>
<path d="M32.713 90.0583C30.519 90.4814 29.2444 89.2843 28.9593 88.9779C28.9192 88.9345 28.8975 88.9082 28.8975 88.9082C28.9204 88.8967 28.9444 88.8864 28.9707 88.8762C29.7872 88.5457 31.6412 88.8087 32.6764 89.1871C32.6821 89.5187 32.6958 89.8091 32.713 90.0583Z" fill="#E2915A"/>
<path d="M28.2413 87.717C28.6329 89.8241 31.356 89.7555 32.5332 89.6228C32.8641 89.5863 33.0726 89.544 33.0726 89.544C33.4459 89.4445 33.6543 88.8568 33.7516 88.0874C33.944 86.5646 33.7012 84.3306 33.4436 83.759C33.0554 82.8992 32.3259 81.9686 29.5834 82.6397C26.8408 83.3119 27.7386 85.0177 28.2413 87.717Z" fill="#FFB27D"/>
<path d="M33.5465 82.5826C33.172 82.0647 32.3773 81.4313 31.6547 81.0414C30.1042 80.2034 28.1197 81.0677 28.1117 81.0711C25.8718 82.0544 25.2867 83.7659 26.4742 86.4309C27.7304 89.2491 28.9259 88.9324 28.9259 88.9324C28.9259 88.9324 28.6717 88.7746 28.6946 87.8966C28.6957 87.8463 28.698 87.8051 28.7003 87.7685C28.7117 87.5879 28.6488 87.4084 28.5136 87.2883C28.2354 87.0403 28.1003 86.2903 28.3327 86.0822C28.6133 85.8307 29.0083 86.1359 29.1354 86.3714C29.2454 86.5372 29.4435 86.5955 29.6267 86.48C30.3241 86.0399 29.8706 85.1595 30.5371 84.6211C31.2035 84.0826 32.5548 84.5353 33.5545 84.1054C34.8622 83.6195 33.8293 82.9736 33.5465 82.5826Z" fill="#233862"/>
<path d="M33.8569 126.836C33.4161 126.949 32.9786 127.043 32.5446 127.114C32.161 127.179 31.7785 127.228 31.3949 127.26C29.2261 127.449 27.0457 127.143 24.499 126.414C23.9253 126.249 23.3332 126.063 22.7172 125.857C22.6519 125.835 22.8843 119.111 23.1535 112.174C23.1809 111.459 23.2096 110.739 23.237 110.026C23.2496 109.723 23.2611 109.422 23.2725 109.123C23.5165 102.988 23.7581 97.4475 23.8085 97.1491C23.9253 96.4746 24.0341 95.8984 24.152 95.3999C24.499 93.9468 24.9295 93.1499 25.8697 92.4639C25.9613 92.3942 26.7125 92.0158 27.3755 91.6876C27.9252 91.4155 28.413 91.1777 28.413 91.1777C28.6317 91.2852 28.894 91.7848 29.1688 92.4857C29.6738 93.7787 30.2177 95.7589 30.5968 97.2383C30.5979 97.2429 30.5991 97.2452 30.5991 97.2463C30.843 98.201 31.0182 98.9453 31.0674 99.1579C31.1522 99.518 31.2632 100.215 31.3949 101.161C31.5736 102.448 31.7866 104.194 32.0121 106.177C32.0351 106.38 32.058 106.587 32.082 106.795C32.1083 107.033 32.1358 107.273 32.1622 107.517C32.1713 107.594 32.1793 107.673 32.1874 107.751C32.2744 108.535 32.3614 109.346 32.4484 110.17C32.5206 110.85 33.5546 111.343 33.6256 112.035C33.6669 112.442 33.7527 116.193 33.8638 117.39C33.944 118.245 33.8879 126.433 33.8569 126.836Z" fill="#AEC3FF"/>
<path d="M26.3762 99.623C26.3728 99.6368 26.201 105.827 30.864 106.579C35.527 107.331 32.4294 107.53 32.4294 107.53C32.4294 107.53 23.6554 107.157 23.51 106.926C23.3646 106.694 26.3762 99.623 26.3762 99.623Z" fill="#9DB0F4"/>
<path d="M30.3165 109.235C30.3165 109.235 30.2294 109.297 30.0611 109.406C30.0577 109.407 30.0554 109.409 30.0519 109.41C29.3408 109.864 27.2292 111.1 24.1545 111.929C23.8316 112.016 23.4984 112.099 23.1548 112.176C23.1823 111.46 23.211 110.741 23.2384 110.028C22.8319 109.996 22.4437 109.944 22.083 109.868C22.0956 109.774 22.1082 109.679 22.1197 109.585C22.5101 109.425 22.8995 109.271 23.2739 109.124C23.5797 109.005 23.8751 108.892 24.1545 108.787C25.4176 108.308 26.3532 107.983 26.3532 107.983L30.0909 109.166L30.3165 109.235Z" fill="#9DB0F4"/>
<path d="M31.307 109.13C31.307 109.13 30.8272 109.25 30.0623 109.403C30.0588 109.403 30.0565 109.403 30.0542 109.404C28.6446 109.687 26.2742 110.083 24.1568 110.063C23.8442 110.059 23.5373 110.047 23.2407 110.024C22.8342 109.992 22.446 109.941 22.0853 109.864C21.3112 109.7 20.6631 109.425 20.2394 108.994C17.0903 105.792 21.9582 94.2958 22.9819 93.1765C24.1775 91.8709 26.3578 91.4124 27.5625 91.2558C27.6128 91.249 27.6609 91.2432 27.7079 91.2375C28.1316 91.1872 28.403 91.1769 28.4179 91.1758C28.4179 91.1758 28.324 91.4787 28.1648 91.9932C28.103 92.1922 28.032 92.4231 27.9541 92.6803C27.2143 95.0995 25.7875 99.8522 25.1577 102.533C24.9275 103.514 24.8038 104.217 24.86 104.428C25.1062 105.343 27.6506 105.814 29.263 106.022C29.9352 106.109 30.4459 106.151 30.5604 106.159C30.5684 106.159 30.5764 106.159 30.5844 106.161L30.6783 106.543L30.9016 107.458L31.1215 108.358L31.307 109.13Z" fill="#AEC3FF"/>
<path d="M40.0913 114.641L29.2744 114.186L31.4685 100.728L42.2853 101.183L40.0913 114.641Z" fill="#233862"/>
<path d="M30.5835 106.162C30.5835 106.162 32.6894 106.016 32.7947 106.505C33.0409 107.647 30.9843 108.585 30.3178 108.521C29.6525 108.458 30.0991 106.085 30.5835 106.162Z" fill="#FFB27D"/>
<path d="M41.6942 103.915C41.6942 103.915 39.6799 103.286 39.4635 103.739C38.9596 104.793 40.7426 106.181 41.4056 106.273C42.0687 106.364 42.1832 103.953 41.6942 103.915Z" fill="#FFB27D"/>
<path d="M28.6323 90.502C28.6323 90.502 27.6326 90.6746 27.1895 91.3114C27.1895 91.3114 30.6145 97.2999 30.5996 97.2462C30.5836 97.1913 29.4797 91.2371 28.6323 90.502Z" fill="#9DB0F4"/>
<path d="M32.7598 90.584C33.0518 90.6937 33.6106 91.2654 33.7366 91.5821L34.1305 96.5931C34.1305 96.5931 33.29 92.9151 32.8617 91.2528C32.754 90.8309 32.7735 90.7017 32.7598 90.584Z" fill="#9DB0F4"/>
<path d="M35.0537 100.88C35.0537 100.88 35.1396 100.506 35.632 100.549C36.1244 100.593 38.891 100.729 38.891 100.729C38.891 100.729 39.4247 100.72 39.3754 101.062L35.0537 100.88Z" fill="#C65447"/>
<path d="M221.626 29.7557L208.664 29.7294C208.068 29.7283 207.583 29.2412 207.584 28.6467L207.61 16.1563C207.611 15.5617 208.099 15.077 208.695 15.0781L221.656 15.1044C222.252 15.1056 222.737 15.5926 222.736 16.1871L222.71 28.6776C222.708 29.2721 222.22 29.7568 221.626 29.7557Z" fill="#C0D8FB"/>
<path d="M221.064 29.1189L209.226 29.0949C208.682 29.0938 208.239 28.649 208.24 28.106L208.264 16.6982C208.265 16.1552 208.711 15.7127 209.255 15.7139L221.093 15.7379C221.637 15.739 222.08 16.1838 222.079 16.7268L222.055 28.1346C222.054 28.6776 221.608 29.1201 221.064 29.1189Z" fill="#DFEBFD"/>
<path d="M214.849 17.0621C214.849 16.8895 214.989 16.75 215.162 16.75C215.335 16.75 215.475 16.8906 215.475 17.0633C215.475 17.2359 215.334 17.3754 215.161 17.3754C214.988 17.3754 214.849 17.2348 214.849 17.0621Z" fill="#B7D3F3"/>
<path d="M217.378 17.5081C217.463 17.3572 217.653 17.3035 217.804 17.3869C217.956 17.4715 218.009 17.6613 217.925 17.8122C217.84 17.9632 217.65 18.0169 217.499 17.9323C217.348 17.8477 217.295 17.659 217.378 17.5081Z" fill="#B7D3F3"/>
<path d="M219.537 19.2325C219.683 19.1388 219.876 19.1811 219.97 19.3263C220.064 19.4715 220.022 19.6647 219.876 19.7584C219.731 19.8522 219.537 19.8099 219.444 19.6647C219.35 19.5195 219.392 19.3263 219.537 19.2325Z" fill="#B7D3F3"/>
<path d="M220.604 21.8936C220.777 21.8936 220.916 22.0342 220.916 22.2068C220.916 22.3795 220.776 22.5189 220.603 22.5189C220.43 22.5189 220.29 22.3783 220.29 22.2057C220.29 22.033 220.431 21.8936 220.604 21.8936Z" fill="#B7D3F3"/>
<path d="M220.054 24.9786C220.177 25.1009 220.175 25.2987 220.053 25.4211C219.93 25.5434 219.732 25.5423 219.61 25.4199C219.487 25.2976 219.489 25.0998 219.611 24.9775C219.734 24.8563 219.932 24.8563 220.054 24.9786Z" fill="#B7D3F3"/>
<path d="M218.081 26.9425C218.204 27.0648 218.203 27.2626 218.08 27.3849C217.958 27.5073 217.76 27.5061 217.637 27.3838C217.515 27.2615 217.516 27.0637 217.638 26.9413C217.761 26.8201 217.96 26.8201 218.081 26.9425Z" fill="#B7D3F3"/>
<path d="M214.828 27.9518C214.828 27.7791 214.969 27.6396 215.142 27.6396C215.315 27.6396 215.455 27.7803 215.455 27.9529C215.455 28.1255 215.314 28.265 215.141 28.265C214.968 28.265 214.827 28.1244 214.828 27.9518Z" fill="#B7D3F3"/>
<path d="M212.939 17.4992C212.855 17.3483 212.664 17.2934 212.513 17.3769C212.362 17.4604 212.307 17.6513 212.391 17.8022C212.474 17.9531 212.665 18.008 212.816 17.9245C212.968 17.8411 213.023 17.6513 212.939 17.4992Z" fill="#B7D3F3"/>
<path d="M210.767 19.2133C210.622 19.1196 210.428 19.1607 210.335 19.3059C210.241 19.4511 210.282 19.6444 210.427 19.7381C210.573 19.8319 210.766 19.7907 210.86 19.6455C210.954 19.5014 210.912 19.3071 210.767 19.2133Z" fill="#B7D3F3"/>
<path d="M209.688 21.8701C209.515 21.8701 209.374 22.0096 209.374 22.1822C209.374 22.3549 209.514 22.4955 209.687 22.4955C209.86 22.4955 210.001 22.356 210.001 22.1834C210.001 22.0107 209.861 21.8713 209.688 21.8701Z" fill="#B7D3F3"/>
<path d="M210.228 24.957C210.105 25.0793 210.105 25.2771 210.227 25.3994C210.348 25.5217 210.547 25.5218 210.67 25.4006C210.792 25.2782 210.793 25.0804 210.671 24.9581C210.548 24.8358 210.35 24.8358 210.228 24.957Z" fill="#B7D3F3"/>
<path d="M212.19 26.9305C212.067 27.0528 212.067 27.2506 212.189 27.3729C212.311 27.4952 212.509 27.4952 212.632 27.3741C212.754 27.2517 212.754 27.0539 212.633 26.9316C212.512 26.8081 212.312 26.8081 212.19 26.9305Z" fill="#B7D3F3"/>
<path d="M215.07 22.1959C215.07 22.0233 215.211 21.8838 215.384 21.8838C215.557 21.8838 215.697 22.0244 215.697 22.1971C215.697 22.3697 215.556 22.5092 215.383 22.5092C215.21 22.508 215.07 22.3686 215.07 22.1959Z" fill="#B7D3F3"/>
<path d="M215.348 18.2885L215.34 22.1963L215.426 22.1965L215.433 18.2887L215.348 18.2885Z" fill="#B7D3F3"/>
<path d="M217.344 20.4601L215.266 22.083L215.424 22.2847L217.502 20.6619L217.344 20.4601Z" fill="#B7D3F3"/>
<path opacity="0.7" d="M221.113 85.7021H194.064C192.89 85.7021 191.938 86.6522 191.938 87.8241C191.938 88.996 192.89 89.946 194.064 89.946H221.113C222.287 89.946 223.238 88.996 223.238 87.8241C223.238 86.6522 222.287 85.7021 221.113 85.7021Z" fill="#29ABE2"/>
<path opacity="0.7" d="M120.839 122.694H100.156C99.0803 122.694 98.21 123.564 98.21 124.637V124.995C98.21 126.068 99.0814 126.937 100.156 126.937H120.839C121.914 126.937 122.784 126.067 122.784 124.995V124.637C122.786 123.564 121.914 122.694 120.839 122.694Z" fill="#29ABE2"/>
<path d="M103.721 137.762C103.906 137.974 103.929 138.21 103.838 138.463C103.838 138.464 103.836 138.465 103.835 138.467C103.666 138.934 103.106 139.457 102.455 139.978C102.372 140.045 102.299 140.106 102.234 140.162C102.217 140.177 102.2 140.192 102.185 140.207C102.173 140.218 102.16 140.231 102.147 140.241C101.54 140.799 101.77 140.927 100.679 142.06C99.4369 143.351 98.5815 143.374 98.3387 143.256C98.1326 143.155 98.5505 142.471 99.0143 141.702C99.0372 141.665 99.059 141.628 99.0819 141.59C99.1437 141.488 99.2044 141.384 99.2662 141.281C99.809 140.355 99.6693 139.921 99.5411 138.543C99.4369 137.424 97.7959 132.288 97.7959 132.288L100.177 131.879C100.177 131.879 100.893 135.968 101.684 136.598C102.106 136.935 102.579 136.938 102.985 137.187C103.013 137.204 103.042 137.223 103.069 137.241C103.299 137.393 103.534 137.55 103.721 137.762Z" fill="#FFB27D"/>
<path d="M103.726 137.763C103.912 137.974 103.935 138.211 103.843 138.464C103.843 138.465 103.842 138.466 103.841 138.467C103.633 138.935 103.087 139.454 102.458 139.973C102.376 140.041 102.304 140.103 102.24 140.162C102.223 140.176 102.205 140.191 102.191 140.206C102.178 140.218 102.165 140.23 102.153 140.24C101.546 140.798 101.775 140.926 100.685 142.059C99.4422 143.35 98.5868 143.373 98.3441 143.255C98.1379 143.155 98.5559 142.471 99.0197 141.702C99.2613 141.614 100.385 141.157 101.234 140.072C101.982 139.119 102.481 137.894 102.991 137.186C103.02 137.203 103.048 137.221 103.076 137.239C103.305 137.394 103.539 137.55 103.726 137.763Z" fill="#233862"/>
<path d="M84.526 136.279C84.3794 137.013 83.3316 136.891 82.1613 136.605C80.991 136.319 81.2692 136.659 79.6031 136.475C77.9381 136.291 77.4331 135.671 77.3827 135.423C77.3369 135.204 78.1602 135.126 79.0431 135.025C79.1542 135.013 79.2653 134.999 79.3775 134.985C80.3738 134.861 81.1043 134.218 82.009 133.691C82.8667 133.191 84.1458 131.156 84.1458 131.156L86.4303 131.337C86.4303 131.337 85.2314 133.155 84.7676 133.945C84.4951 134.41 84.51 135.024 84.5432 135.498C84.5615 135.757 84.5775 136.021 84.526 136.279Z" fill="#FFB27D"/>
<path d="M82.1613 136.603C80.991 136.318 81.2692 136.657 79.6031 136.473C77.9381 136.289 77.4331 135.669 77.3827 135.421C77.3369 135.202 78.1602 135.124 79.0431 135.023L79.0511 135.041C79.0511 135.041 80.0497 135.747 81.4364 135.78C82.5666 135.808 83.7633 135.484 84.5431 135.497C84.5603 135.755 84.5775 136.018 84.5259 136.276C84.3782 137.012 83.3316 136.888 82.1613 136.603Z" fill="#233862"/>
<path d="M93.2783 121.696L95.414 127.433L98.2012 134.924C98.2012 134.924 98.9581 134.997 99.6819 134.789C100.348 134.597 101.114 134.093 101.114 134.093C101.114 134.093 100.34 126.049 98.8963 121.433C98.5264 120.247 98.1119 119.289 97.6538 118.75C95.4163 116.107 93.2783 121.696 93.2783 121.696Z" fill="#233862"/>
<path d="M95.4466 112.585C96.846 112.135 100.836 112.713 104.844 113.496L105.683 112.114L114.34 111.439C114.34 111.439 117.197 117.764 115.633 121.794C115.403 122.386 114.946 122.766 114.167 122.779H114.041C114.041 122.779 108.888 122.775 107.215 122.775C102.909 122.775 98.1033 119.821 97.4815 119.696C96.4635 119.493 96.057 121.526 95.039 123.659C94.0209 125.792 85.4726 133.108 85.4726 133.108C85.4726 133.108 84.1591 133.121 83.6163 132.919C83.0323 132.7 82.8193 132.417 82.8193 132.417C82.8193 132.417 92.2918 113.601 95.4466 112.585Z" fill="#2B478B"/>
<path d="M103.275 100.098C106.005 102.314 112.584 106.156 112.619 106.14C112.619 106.14 114.726 107.4 116.164 106.782C118.561 105.751 120.401 102.143 117.086 98.1506C115.433 96.159 114.062 95.5039 114.385 92.8561C114.733 89.9875 113.437 86.3816 110.13 86.2307C109.854 86.2181 108.178 85.9952 106.984 86.369C103.937 87.3225 98.8444 98.6285 103.275 100.098Z" fill="#A9453D"/>
<path d="M112.228 96.7451C112.242 96.7474 111.563 98.2257 110.574 98.5847C109.522 98.9677 108.03 98.3457 108.044 98.3366C108.223 98.2348 108.35 97.5626 108.281 96.7531C108.278 96.7142 108.274 96.6754 108.27 96.6365C108.177 95.731 107.915 94.7398 107.899 94.6757C107.897 94.6735 107.897 94.6735 107.897 94.6735L111.101 93.7588L111.292 93.7051C111.492 96.2318 111.793 96.6971 112.228 96.7451Z" fill="#FFB27D"/>
<path d="M111.101 93.7598C110.791 94.6893 109.999 96.3688 108.27 96.6386C108.177 95.7331 107.915 94.7419 107.899 94.6778C107.897 94.6755 107.897 94.6755 107.897 94.6755L111.101 93.7598Z" fill="#ED975D"/>
<path d="M107.366 95.6366C107.366 95.6366 111.684 95.3496 111.464 92.6675C111.245 89.9853 111.653 88.1412 108.887 88.2109C106.12 88.2806 105.669 89.3485 105.525 90.2608C105.38 91.1732 106.237 95.6423 107.366 95.6366Z" fill="#FFB27D"/>
<path d="M106.588 88.1633C106.588 88.1633 107.661 91.3062 110.209 91.672C112.067 91.9384 112.806 91.4365 112.806 91.4365C112.806 91.4365 111.768 90.4522 111.206 88.9385C111.04 88.4926 110.649 88.1679 110.178 88.0947C108.855 87.8912 107.147 87.0166 106.588 88.1633Z" fill="#A9453D"/>
<path d="M107.51 88.7185C107.51 88.7185 106.74 89.0294 106.201 90.1784C105.907 90.8061 105.695 92.3027 105.876 92.9189C105.876 92.9189 104.635 90.0504 105.534 88.7585C106.486 87.3877 107.51 88.7185 107.51 88.7185Z" fill="#A9453D"/>
<path d="M115.827 106.644C115.75 106.97 115.683 107.27 115.631 107.546C115.543 107.992 115.483 108.376 115.441 108.716C115.309 109.774 115.349 110.4 115.26 111.086C115.21 111.469 115.12 111.872 114.938 112.377C114.759 112.868 110.079 113.306 107.416 113.129C106.57 113.074 105.926 112.955 105.697 112.759C104.747 111.934 104.841 113.747 104.711 105.078C104.648 100.85 108.304 97.0842 108.304 97.0842C108.304 97.0842 108.596 98.8906 112.223 96.7412C112.352 96.6658 113.78 98.7774 115.154 101.377C116.669 104.248 116.254 104.855 115.827 106.644Z" fill="#AEC3FF"/>
<path d="M95.4141 127.432L98.2013 134.922C98.2013 134.922 98.9582 134.996 99.6819 134.788C100.348 134.595 101.114 134.091 101.114 134.091C101.114 134.091 100.34 126.048 98.8964 121.432L95.4141 127.432Z" fill="#2B478B"/>
<path d="M108.301 97.083C108.301 97.083 104.569 97.7141 104.131 99.3181C103.693 100.922 100.666 109.894 100.666 109.894C100.666 109.894 103.011 110.693 103.888 109.818C104.764 108.944 106.938 101.701 106.938 101.701L108.301 97.083Z" fill="#AEC3FF"/>
<path d="M108.087 93.9139C108.087 93.9139 107.982 94.378 107.511 94.4569C107.041 94.5347 106.902 94.4855 106.797 94.4009C106.692 94.3163 106.571 94.1391 106.571 94.1391C106.571 94.1391 107.325 93.8567 108.087 93.9139Z" fill="white"/>
<path d="M115.442 108.717C115.311 109.775 115.351 110.401 115.261 111.087C111.873 111.098 107.343 108.475 107.343 108.475L115.442 108.717Z" fill="#94B0ED"/>
<path d="M107.343 106.255C107.343 106.255 112.621 106.099 113.51 103.103C114.488 99.813 115.583 104.457 115.583 104.457L115 107.42H109.209L107.343 106.255Z" fill="#94B0ED"/>
<path d="M108.412 111.223L100.222 111.299L96.1924 101.844L104.382 101.768L108.412 111.223Z" fill="#F9DDBF"/>
<path d="M107.34 106.951L106.74 106.215C106.74 106.215 106.333 105.854 106.039 105.792C105.745 105.73 105.122 105.372 105.061 105.473C105 105.573 105.54 106.295 105.54 106.295L105.567 106.298C104.949 106.762 103.388 106.353 103.196 106.542C102.962 106.772 103.517 107.268 103.815 107.547C104.113 107.826 104.965 108.29 105.628 108.084C106.113 107.933 106.877 107.78 106.877 107.78L107.34 106.951Z" fill="#FFB27D"/>
<path d="M112.222 96.7412C112.222 96.7412 115.648 96.9653 116.505 98.2995C117.361 99.6337 118.424 106.408 117.979 108.733C117.533 111.059 106.561 108.288 106.561 108.288L106.911 106.271C106.911 106.271 113.243 106.307 113.604 105.484C114.083 104.389 112.222 96.7412 112.222 96.7412Z" fill="#AEC3FF"/>
<path d="M96.8062 103.508C96.8062 103.508 97.3203 102.924 97.6478 103.204C97.9753 103.484 97.562 104.862 97.2505 104.722C96.939 104.582 96.6276 103.678 96.8062 103.508Z" fill="#FFB27D"/>
<path d="M184.828 104.963C184.828 104.963 185.15 108.972 184.431 109.024C184.336 109.031 180.785 109.031 180.785 109.031L176.253 109.005C176.253 109.005 176.283 107.914 177.608 107.684C178.932 107.453 181.555 106.341 182.358 104.593C183.203 102.753 184.828 104.963 184.828 104.963Z" fill="#163560"/>
<path d="M212.147 83.6719C212.147 83.6719 212.118 84.423 212.028 85.3788C211.838 87.3921 210.147 88.9321 208.123 88.9321C208.123 88.9321 198.48 88.7664 195.271 88.9321C194.209 88.987 191.42 89.33 191.068 89.5895C190.625 89.9165 192.611 93.1623 185.168 105.847L181.521 105.755C181.521 105.755 184.719 85.3937 186.514 84.4173C188.831 83.1562 198.884 81.1738 200.914 81.1143C202.943 81.0537 212.147 83.6719 212.147 83.6719Z" fill="#2B478B"/>
<path d="M202.357 62.0514C201.121 62.8163 201.051 64.3403 201.051 64.3403C204.068 65.12 208.457 61.7747 208.457 61.7747C208.457 61.7747 206.515 60.4725 205.796 57.6097C205.76 57.4656 205.726 57.317 205.698 57.1661C205.604 56.6836 205.545 56.1623 205.534 55.5986L204.148 56.838L201.843 58.8993C201.843 58.8993 201.896 59.7545 202.183 61.2259C202.234 61.482 202.292 61.7576 202.357 62.0514Z" fill="#FFB27D"/>
<path d="M200.65 77.8634C200.753 78.5356 200.545 79.0741 200.444 79.5749C200.405 79.7658 200.382 79.951 200.399 80.1351C200.438 80.5775 200.431 80.9274 200.399 81.2132C200.299 82.1278 199.951 82.3748 200.109 82.8321C200.109 82.8321 200.816 83.2448 202.115 83.7365C202.681 83.9514 203.357 84.1789 204.136 84.3938C204.177 84.4041 204.217 84.4178 204.258 84.4281C207.276 85.2422 210.444 85.4159 211.342 85.3919C213.054 85.3451 213.398 81.0143 212.763 75.5619C211.774 67.065 210.436 62.9469 206.914 59.9686C206.691 59.7823 206.841 60.4191 205.656 60.9907C204.561 61.5143 203.24 61.639 202.217 61.4114L201.411 62.2358C199.811 64.7601 199.642 67.7578 199.779 70.2548C199.918 72.7986 200.205 74.9308 200.467 76.6766C200.532 77.0928 200.592 77.4895 200.65 77.8634Z" fill="#2B478B"/>
<path d="M201.841 58.8973C201.841 58.8973 201.719 58.7681 202.007 60.2395C204.56 59.5021 205.391 58.2033 205.732 57.3436C205.83 57.1 204.783 56.9708 204.146 56.8359L201.841 58.8973Z" fill="#ED975D"/>
<path d="M200.651 58.9058C200.651 58.9058 205.576 59.6101 205.967 56.5403C206.359 53.4717 207.259 51.495 204.131 50.9154C201.002 50.3357 200.241 51.4287 199.86 52.4222C199.481 53.4157 199.379 58.644 200.651 58.9058Z" fill="#FFB27D"/>
<path d="M173.354 68.69L172.976 68.8027L175.93 78.6906L176.309 78.5778L173.354 68.69Z" fill="#1C468A"/>
<path d="M186.772 78.0726L175.927 78.042L175.925 78.6902L186.771 78.7208L186.772 78.0726Z" fill="#1C468A"/>
<path d="M207.544 50.9762C207.584 50.9305 207.675 50.8939 207.878 50.8813C207.878 50.8813 207.714 50.7807 207.494 50.7773C207.45 50.4937 207.294 49.9918 206.803 49.8729C206.803 49.8729 207.067 50.0113 207.104 50.3131C206.531 49.7357 205.313 49.3219 201.948 49.6134C197.515 49.9976 199 52.8226 199.577 53.1553C200.154 53.4892 201.592 52.5505 202.663 52.6271C203.734 52.7037 203.949 54.246 204.314 54.4541C204.678 54.6633 204.533 54.2895 205.023 54.0643C205.512 53.839 205.566 54.6508 205.428 55.1801C205.291 55.7095 205.971 56.4012 205.971 56.4012C205.971 56.4012 205.971 56.4012 206.648 55.6626C207.367 54.876 208.021 51.4038 207.555 51.0574C207.55 51.0265 207.547 51.0082 207.544 50.9762Z" fill="#2C3A64"/>
<path d="M200.399 80.134C200.438 80.5765 200.431 80.9263 200.399 81.2122C207.388 79.6173 207.704 69.9519 207.736 69.7861L200.676 75.9908C200.676 75.9908 200.586 76.2594 200.468 76.6733C200.532 77.0918 200.593 77.4885 200.651 77.8623C200.754 78.5346 200.546 79.0731 200.445 79.5738C200.406 79.7659 200.382 79.95 200.399 80.134Z" fill="#163560"/>
<path d="M189.929 78.332C189.929 78.332 189.477 78.4052 189.001 78.1823C188.524 77.9582 186.879 77.2528 186.57 77.35C186.261 77.446 185.252 78.0153 185.015 78.1228C184.778 78.2303 184.357 78.7848 184.357 78.7848C184.531 78.9608 185.135 79.0214 185.409 79.0294C185.682 79.0374 187.714 79.6754 188.315 79.6994C188.916 79.7234 189.852 79.5999 189.852 79.5999L189.929 78.332Z" fill="#FFB27D"/>
<path d="M189.001 78.1822C189.001 78.1822 188.342 77.5739 188.125 77.2812C188.125 77.2812 187.993 77.3407 187.989 77.4516C187.979 77.6368 188.16 77.9764 188.16 77.9764L189.001 78.1822Z" fill="#FFB27D"/>
<path d="M201.952 63.6648C205.569 61.4651 209.838 65.3077 208.044 69.1377C205.962 73.5782 202.497 78.9951 199.744 79.3153C197.781 79.5439 192.173 80.2608 189.797 79.8194C189.797 79.8194 188.646 79.8755 189.27 78.0256C189.27 78.0256 196.945 75.89 198.221 74.2333C198.904 73.3461 200.068 71.5489 201.868 63.7162C201.875 63.6853 201.923 63.6819 201.952 63.6648Z" fill="#2B478B"/>
<path opacity="0.7" d="M276.54 65.4824H249.93C248.756 65.4824 247.805 66.4325 247.805 67.6044C247.805 68.7762 248.756 69.7263 249.93 69.7263H276.54C277.714 69.7263 278.666 68.7762 278.666 67.6044C278.666 66.4325 277.714 65.4824 276.54 65.4824Z" fill="#29ABE2"/>
<path d="M249.322 56.8238C249.322 56.8238 249.758 56.5917 250.141 56.5597C252.299 56.3791 256.982 54.7899 257.479 54.424C258.394 53.7506 262.221 50.5506 263.729 48.934C263.73 48.9328 264.993 47.4568 264.993 47.4568C266.421 45.9282 265.134 43.2529 265.134 43.2529C265.134 43.2529 262.684 44.2853 261.798 45.304C261.219 45.9694 256.785 51.4275 256.233 51.695C254.433 52.5662 249.328 55.5433 248.795 55.7766C248.796 55.7777 248.105 56.2556 249.322 56.8238Z" fill="#FFB27D"/>
<path d="M235.81 83.2384C235.81 83.2384 236.099 87.0695 235.439 87.1198C235.351 87.1267 232.099 87.1198 232.099 87.1198L227.948 87.0867C227.948 87.0867 227.978 86.044 229.192 85.8268C230.406 85.6096 232.81 84.5497 233.549 82.8805C234.326 81.1233 235.81 83.2384 235.81 83.2384Z" fill="#163560"/>
<path d="M264.753 59.7699C264.753 59.7699 264.373 66.7154 263.734 67.9239C263.734 67.9239 263.45 67.8232 261.371 67.8004C258.857 67.7729 246.848 67.6998 245.406 68.4246C244.955 68.651 243.653 74.0622 235.918 83.3606C235.918 83.3606 235.15 83.875 233.976 83.787C232.858 83.7035 232.764 83.4966 232.764 83.4966C232.764 83.4966 240.142 64.7832 241.77 63.2444C244.257 60.8926 256.972 58.4951 258.831 58.4448C260.692 58.3922 264.753 59.7699 264.753 59.7699Z" fill="#ED7D2B"/>
<path d="M244.418 83.4175C244.418 83.4175 244.707 87.0898 244.048 87.1366C243.961 87.1424 240.708 87.1366 240.708 87.1366L236.557 87.1035C236.557 87.1035 236.586 86.1042 237.8 85.8962C239.014 85.6869 241.418 84.6728 242.156 83.0734C242.933 81.3905 244.418 83.4175 244.418 83.4175Z" fill="#163560"/>
<path d="M269.531 59.7783C269.531 59.7783 269.425 61.6979 269.233 63.6952C268.996 66.1544 267.465 67.715 265.003 67.9666C263.345 68.1358 261.387 68.0409 260.093 68.0306C253.853 67.9826 251.625 67.7082 250.184 68.433C249.733 68.6594 251.868 72.0801 244.541 83.377C244.541 83.377 243.989 83.816 242.768 83.9863C242.04 84.0881 241.2 83.8103 241.2 83.8103C241.2 83.8103 243.503 66.0264 245.355 63.973C246.678 62.5051 257.152 60.8016 259.011 60.7501C260.87 60.6998 269.531 59.7783 269.531 59.7783Z" fill="#F99746"/>
<path d="M274.624 50.9007C274.502 51.5181 274.35 52.2041 274.172 52.9301C274.157 52.9907 274.142 53.0513 274.127 53.1119C273.847 54.2414 273.506 55.4625 273.125 56.6664C272.018 60.1637 270.56 63.5318 269.185 64.1915C269.04 64.2601 264.956 64.2144 262.162 63.1225C261.353 62.8058 260.576 62.3234 259.874 61.7894C258.856 61.0143 257.997 60.1328 257.433 59.5006C257.028 59.0455 257.071 58.3493 257.527 57.9446C258.582 57.0105 260.337 55.3584 260.734 54.3889C261.068 53.5715 261.563 51.8508 261.958 50.3931C259.892 49.8421 259.425 47.5966 259.425 47.5966C259.425 47.5966 262.815 43.9255 263.877 43.2521C265.266 42.3695 267.101 42.2609 267.82 42.1386C269.584 41.8402 271.954 41.9785 274.895 43.3882C275.655 43.7517 276.72 44.5703 277.432 46.0132C278.307 47.7818 276.757 51.1042 274.624 50.9007Z" fill="#1C468A"/>
<path d="M269.648 44.7939C267.908 44.9208 267.761 43.5203 267.761 43.5203L267.802 42.6045V42.5919L267.849 41.5001C267.849 41.5001 267.938 41.4543 268.087 41.3766C268.498 41.1628 269.373 40.7181 270.103 40.3819C270.736 40.0915 271.263 39.8823 271.284 39.9806C271.314 40.127 271.359 40.3031 271.411 40.4963C271.415 40.5077 271.417 40.518 271.421 40.5294C271.616 41.2348 271.941 42.1506 272.276 42.6239C272.53 43.6769 271.386 44.6647 269.648 44.7939Z" fill="#FFB27D"/>
<path d="M248.794 55.778C248.794 55.778 247.759 55.9507 247.219 55.7746C246.678 55.5985 243.371 56.8642 243.767 56.895C244.163 56.9259 246.145 56.6378 246.606 56.6778C247.067 56.7178 247.314 56.7396 247.133 56.9042C246.952 57.0688 245.669 57.1123 246.117 57.2552C246.565 57.3981 247.663 57.3604 248.131 57.2598C248.6 57.1591 249.107 56.9362 249.417 56.7761C249.764 56.5978 248.794 55.778 248.794 55.778Z" fill="#FFB27D"/>
<path d="M271.443 40.4863C271.443 40.4863 271.434 40.5023 271.416 40.5298C271.233 40.8305 270.047 42.6106 267.798 42.6048V42.5923L267.845 41.5004C267.845 41.5004 267.934 41.4547 268.083 41.377C268.366 41.3038 268.565 41.2592 268.565 41.2592L271.408 40.4966L271.443 40.4863Z" fill="#F2A16B"/>
<path d="M267.203 41.7937C267.203 41.7937 271.567 42.1973 271.777 39.4797C271.987 36.7621 272.691 34.9843 269.914 34.6116C267.136 34.2389 266.514 35.2347 266.223 36.1242C265.932 37.0148 266.074 41.6188 267.203 41.7937Z" fill="#FFAC73"/>
<path d="M273.342 34.4306C273.382 34.3848 273.474 34.3482 273.681 34.3379C273.681 34.3379 273.517 34.2339 273.297 34.2271C273.256 33.9412 273.106 33.4347 272.614 33.309C272.614 33.309 272.878 33.4519 272.911 33.756C272.344 33.1672 271.124 32.7351 267.736 32.982C263.273 33.3078 264.726 36.1684 265.302 36.5125C265.878 36.8555 267.337 35.9317 268.413 36.0232C269.488 36.1146 269.684 37.6683 270.048 37.8833C270.412 38.0982 270.27 37.7209 270.766 37.5003C271.262 37.2796 271.303 38.0982 271.158 38.6287C271.012 39.1592 271.687 39.8646 271.687 39.8646C271.687 39.8646 271.687 39.8646 272.377 39.1306C273.068 38.3966 273.732 35.2766 273.424 34.6089C273.397 34.5506 273.37 34.4912 273.342 34.4306Z" fill="#2C3A64"/>
<path d="M273.441 48.9473C273.441 48.9473 270.558 57.0978 269.622 57.8158C268.687 58.5327 259.444 60.4374 259.444 60.4374L258.377 62.0311C258.377 62.0311 268.886 63.2019 271.781 61.0548C273.148 60.0418 277.708 51.5025 277.708 51.5025L273.441 48.9473Z" fill="#FFB27D"/>
<path d="M276.923 45.2178C276.923 45.2178 278.411 46.991 278.08 49.544C277.749 52.097 276.841 53.6175 276.841 53.6175L270.211 50.4392L276.923 45.2178Z" fill="#1C468A"/>
<path d="M259.441 60.4368C259.441 60.4368 257.512 59.8732 256.844 59.9921C256.175 60.111 254.359 61.8053 254.669 61.9962C254.979 62.1872 256.789 61.4955 257.127 61.8053C257.464 62.1151 258.394 62.2924 258.992 62.0911C259.59 61.8899 259.615 60.6837 259.615 60.6837L259.441 60.4368Z" fill="#FFB27D"/>
<path d="M244.968 57.7272L253.267 57.7444C253.268 57.3797 252.972 57.0836 252.607 57.0824L244.97 57.0664L244.968 57.7272Z" fill="#B24940"/>
<path d="M245.008 48.7031L232.177 48.6768L235.237 57.7064L248.15 57.7339L245.008 48.7031Z" fill="#B24940"/>
<path d="M231.986 48.6768L235.046 57.7064L247.96 57.7327L244.818 48.7031L231.986 48.6768Z" fill="#C65447"/>
<path d="M238.896 53.1192C238.975 53.4645 239.319 53.7446 239.665 53.7446C240.01 53.7457 240.226 53.4668 240.147 53.1215C240.068 52.7762 239.724 52.4961 239.378 52.4961C239.034 52.495 238.817 52.7739 238.896 53.1192Z" fill="#F9DDBF"/>
<path opacity="0.7" d="M294.434 142.995C292.955 145.74 290.945 148.003 288.181 149.398C287.227 149.873 286.325 150.063 285.268 150.254H67.0361V147.863C67.0361 145.175 69.2187 142.995 71.9121 142.995H294.434Z" fill="#29ABE2"/>
<path opacity="0.7" d="M165.15 104.787H143.468C142.668 104.787 142.021 105.434 142.021 106.231V107.586C142.021 108.384 142.67 109.03 143.468 109.03H165.15C165.949 109.03 166.596 108.383 166.596 107.586V106.231C166.596 105.434 165.949 104.787 165.15 104.787Z" fill="#29ABE2"/>
<path d="M165.198 81.2015H196.977C197.524 81.2015 197.967 80.759 197.967 80.2125V79.9313C197.967 79.2625 197.424 78.7217 196.756 78.7217H165.199V81.2015H165.198Z" fill="#29ABE2"/>
<path d="M278.062 29.8096C277.157 29.8073 276.422 30.5379 276.421 31.4411L276.342 69.7767L279.75 69.7836L279.829 31.5805C279.83 30.6042 279.04 29.8119 278.062 29.8096Z" fill="#29ABE2"/>
<path d="M224.648 60.1167L254.237 60.1773C254.855 60.1784 255.356 59.68 255.357 59.0637C255.359 58.3103 254.748 57.6975 253.994 57.6963L224.654 57.6357L224.648 60.1167Z" fill="#29ABE2"/>
<path d="M73.9626 101.578H73.8103C72.9458 101.578 72.2461 102.278 72.2461 103.14V142.997H75.654V103.266C75.6528 102.334 74.8959 101.578 73.9626 101.578Z" fill="#29ABE2"/>
<path d="M72.2461 111.127H99.6421C100.259 111.127 100.76 110.628 100.76 110.012C100.76 109.258 100.147 108.646 99.3924 108.646H72.2461V111.127Z" fill="#29ABE2"/>
<path d="M84.3958 107.143H78.9072V105.207H84.4129C84.8412 105.207 85.1882 105.553 85.1882 105.981V106.351C85.1882 106.788 84.8332 107.143 84.3958 107.143Z" fill="#FCECDB"/>
<path d="M89.8778 106.004V106.295C89.8778 106.451 89.8355 106.596 89.7622 106.722C89.6156 106.973 89.3419 107.144 89.0282 107.144H78.7438C78.6762 107.144 78.6201 107.089 78.6201 107.02V106.977C78.6201 106.909 78.6751 106.853 78.7438 106.853H85.0133C85.0466 106.812 85.0763 106.769 85.1015 106.722C85.1599 106.611 85.1931 106.485 85.1931 106.351V105.981C85.1931 105.914 85.184 105.847 85.1679 105.784C85.1393 105.678 85.0901 105.58 85.0225 105.497H78.7438C78.6762 105.497 78.6201 105.443 78.6201 105.374V105.331C78.6201 105.263 78.6751 105.207 78.7438 105.207H89.0797C89.4438 105.207 89.7507 105.451 89.8469 105.784C89.8664 105.854 89.8778 105.927 89.8778 106.004Z" fill="#699DEE"/>
<path d="M89.847 105.784H85.168C85.1394 105.678 85.0901 105.58 85.0225 105.497H78.7438C78.6762 105.497 78.6201 105.443 78.6201 105.374V105.331C78.6201 105.263 78.6751 105.207 78.7438 105.207H89.0797C89.4439 105.207 89.7519 105.451 89.847 105.784Z" fill="#548EE2"/>
<path d="M78.9102 106.176L79.6717 106.208L78.9102 106.227V106.176Z" fill="#F4D2B8"/>
<path d="M78.9102 106.479L80.7218 106.512L78.9102 106.531V106.479Z" fill="#F4D2B8"/>
<path d="M80.2297 108.644H86.0721V107.139H80.1827C79.7797 107.139 79.4521 107.465 79.4521 107.868C79.4521 108.297 79.8003 108.644 80.2297 108.644Z" fill="#ED7D2B"/>
<path d="M85.7338 108.644H92.3824V107.139H85.7166C85.3067 107.139 84.9746 107.47 84.9746 107.88V107.885C84.9746 108.305 85.3147 108.644 85.7338 108.644Z" fill="#FCECDB"/>
<path d="M84.5321 108.646H92.6156C92.6774 108.646 92.7278 108.596 92.7278 108.534C92.7278 108.472 92.6774 108.422 92.6156 108.422H84.5321C84.4703 108.422 84.4199 108.472 84.4199 108.534C84.4199 108.596 84.4703 108.646 84.5321 108.646Z" fill="#ED7D2B"/>
<path d="M84.5321 107.364H92.6156C92.6774 107.364 92.7278 107.313 92.7278 107.252C92.7278 107.19 92.6774 107.14 92.6156 107.14H84.5321C84.4703 107.14 84.4199 107.19 84.4199 107.252C84.4199 107.313 84.4703 107.364 84.5321 107.364Z" fill="#ED7D2B"/>
<path d="M92.3843 107.893L91.4854 107.918L92.3843 107.933V107.893Z" fill="#F4D2B8"/>
<path d="M92.3839 107.548L90.2471 107.573L92.3839 107.588V107.548Z" fill="#F4D2B8"/>
<path d="M90.2607 107.567C90.2607 107.567 90.3524 107.633 90.3821 107.739C90.3879 107.757 90.3913 107.778 90.3913 107.798C90.3959 107.94 90.3913 108.259 90.3913 108.259L90.6615 108.099L90.9306 108.259V107.826C90.9306 107.743 90.9077 107.665 90.8642 107.612C90.8436 107.587 90.8184 107.567 90.7898 107.567H90.2607Z" fill="#F99746"/>
<path d="M90.2607 107.567C90.2607 107.567 90.3524 107.633 90.3821 107.739L90.9238 107.746C90.9238 107.746 90.902 107.594 90.7909 107.569H90.2607V107.567Z" fill="#ED7D2B"/>
<path d="M128.85 90.7549H124.245V88.8193H128.866C129.261 88.8193 129.58 89.1383 129.58 89.5327V90.0255C129.58 90.4279 129.253 90.7549 128.85 90.7549Z" fill="#FCECDB"/>
<path d="M133.558 89.616V89.9076C133.558 90.0631 133.523 90.2083 133.461 90.334C133.336 90.5855 133.103 90.7559 132.837 90.7559H124.1C124.043 90.7559 123.996 90.701 123.996 90.6336V90.5901C123.996 90.5227 124.043 90.4678 124.1 90.4678H129.425C129.454 90.4266 129.479 90.3832 129.5 90.3352C129.55 90.2243 129.578 90.0985 129.578 89.9647V89.5943C129.578 89.5257 129.57 89.4606 129.556 89.3977C129.532 89.2913 129.489 89.193 129.432 89.1107H124.099C124.042 89.1107 123.995 89.0558 123.995 88.9872V88.9438C123.995 88.8763 124.042 88.8203 124.099 88.8203H132.879C133.188 88.8203 133.449 89.0638 133.531 89.3977C133.549 89.4663 133.558 89.5406 133.558 89.616Z" fill="#699DEE"/>
<path d="M133.531 89.3957H129.556C129.532 89.2894 129.489 89.1911 129.432 89.1088H124.099C124.042 89.1088 123.995 89.0539 123.995 88.9853V88.9418C123.995 88.8744 124.042 88.8184 124.099 88.8184H132.879C133.188 88.8195 133.449 89.063 133.531 89.3957Z" fill="#548EE2"/>
<path d="M124.245 89.7871L124.892 89.8203L124.245 89.8397V89.7871Z" fill="#F4D2B8"/>
<path d="M124.245 90.0918L125.784 90.1238L124.245 90.1432V90.0918Z" fill="#F4D2B8"/>
<path d="M125.419 92.2547H130.326V90.749H125.375C125.003 90.749 124.702 91.0497 124.702 91.4213V91.539C124.702 91.9335 125.023 92.2547 125.419 92.2547Z" fill="#ED7D2B"/>
<path d="M130.093 92.2538H135.686V90.748H130.077C129.699 90.748 129.393 91.0544 129.393 91.4317V91.5552C129.394 91.9405 129.706 92.2538 130.093 92.2538Z" fill="#FCECDB"/>
<path d="M129.026 92.2535H135.876C135.933 92.2535 135.98 92.2067 135.98 92.1495V92.1324C135.98 92.0752 135.933 92.0283 135.876 92.0283H129.026C128.969 92.0283 128.922 92.0752 128.922 92.1324V92.1495C128.923 92.2067 128.969 92.2535 129.026 92.2535Z" fill="#ED7D2B"/>
<path d="M129.026 90.9733H135.876C135.933 90.9733 135.98 90.9264 135.98 90.8693V90.8521C135.98 90.7949 135.933 90.748 135.876 90.748H129.026C128.969 90.748 128.922 90.7949 128.922 90.8521V90.8693C128.923 90.9264 128.969 90.9733 129.026 90.9733Z" fill="#ED7D2B"/>
<path d="M135.688 91.5L134.926 91.5252L135.688 91.5412V91.5Z" fill="#F4D2B8"/>
<path d="M135.688 91.1553L133.873 91.1804L135.688 91.1964V91.1553Z" fill="#F4D2B8"/>
<path d="M133.89 91.1758C133.89 91.1758 133.968 91.2409 133.993 91.3473C133.997 91.3656 134.001 91.3861 134.001 91.4067C134.005 91.5485 134.001 91.8675 134.001 91.8675L134.231 91.7074L134.46 91.8675V91.4342C134.46 91.3518 134.44 91.273 134.404 91.2204C134.387 91.1952 134.365 91.1758 134.341 91.1758H133.89Z" fill="#F99746"/>
<path d="M133.89 91.1758C133.89 91.1758 133.968 91.241 133.993 91.3473L134.453 91.353C134.453 91.353 134.435 91.2009 134.34 91.1758H133.89Z" fill="#ED7D2B"/>
<path d="M143.328 94.3145L138.88 99.4136L144.626 97.7329L143.328 94.3145Z" fill="#F99746"/>
<path d="M140.543 87.2541L140.325 87.1543L138.38 91.3791L138.598 91.4789L140.543 87.2541Z" fill="#2B478B"/>
<path d="M138.389 91.3779L138.315 91.85L138.606 91.4774L138.389 91.3779Z" fill="#2B478B"/>
<path d="M149.393 69.1708C149.393 69.1708 150.706 68.7329 151.987 69.3377C155.119 70.8171 153.693 73.1609 155.243 74.2573C156.793 75.3537 158.259 78.0221 157.19 79.5987C156.122 81.1753 154.14 81.3799 153.293 80.2424C152.445 79.1037 149.677 79.3655 149.938 77.8152C150.2 76.2649 151.606 70.8183 150.295 71.0606C148.985 71.303 149.393 69.1708 149.393 69.1708Z" fill="#233862"/>
<path d="M144.629 71.7673C144.629 71.7673 146.28 68.4495 149.394 69.1697C152.507 69.89 152.277 76.2295 150.608 76.4581C149.088 76.6662 144.629 71.7673 144.629 71.7673Z" fill="#233862"/>
<path d="M153.734 88.9148L150.767 95.6167C150.767 95.6167 148.049 98.5687 146 97.5008L153.116 84.959L153.734 88.9148Z" fill="#ABDDDA"/>
<path d="M133.927 125.595C133.975 126.351 132.919 126.503 131.7 126.528C130.482 126.553 130.842 126.813 129.166 127.065C127.489 127.318 126.834 126.844 126.72 126.615C126.618 126.413 127.402 126.122 128.239 125.794C128.345 125.753 128.45 125.711 128.556 125.668C129.497 125.288 130.043 124.47 130.791 123.719C131.499 123.008 132.219 120.686 132.219 120.686L134.499 120.269C134.499 120.269 133.801 122.357 133.554 123.25C133.409 123.775 133.583 124.373 133.741 124.828C133.825 125.076 133.911 125.33 133.927 125.595Z" fill="#FFB27D"/>
<path d="M131.859 126.701C130.641 126.726 130.842 126.815 129.166 127.068C127.489 127.32 126.834 126.846 126.72 126.617C126.618 126.415 127.402 126.124 128.239 125.796L128.252 125.811C128.252 125.811 129.413 126.243 130.777 125.915C131.889 125.648 132.975 125.021 133.741 124.83C133.825 125.078 133.91 125.331 133.927 125.597C133.975 126.352 133.078 126.675 131.859 126.701Z" fill="#0F2549"/>
<path d="M135.247 101.55C137.282 99.6853 147.683 95.3614 151.806 95.0847L156.567 93.5596C156.567 93.5596 160.201 99.4246 160.057 103.794C159.989 105.832 159.042 105.997 159.041 105.997C159.041 105.997 144.491 105.526 143.851 105.566C142.803 105.633 141.323 108.173 140.884 110.524C140.446 112.874 133.996 122.248 133.996 122.248C133.996 122.248 132.715 122.603 132.132 122.545C131.505 122.484 131.222 122.262 131.222 122.262C131.222 122.262 132.777 103.815 135.247 101.55Z" fill="#233862"/>
<path d="M137.687 125.747C137.735 126.502 136.678 126.654 135.46 126.679C134.241 126.705 134.602 126.964 132.926 127.217C131.249 127.469 130.594 126.995 130.48 126.766C130.378 126.564 131.162 126.274 131.999 125.945C132.105 125.904 132.21 125.862 132.315 125.82C133.257 125.439 133.803 124.622 134.551 123.87C135.258 123.159 135.979 120.837 135.979 120.837L138.259 120.42C138.259 120.42 137.561 122.509 137.314 123.402C137.168 123.926 137.342 124.524 137.5 124.979C137.586 125.227 137.671 125.481 137.687 125.747Z" fill="#FFB27D"/>
<path d="M135.464 126.68C134.246 126.705 134.606 126.964 132.93 127.217C131.253 127.47 130.53 127.011 130.416 126.782C130.314 126.58 130.998 126.241 132.003 125.946L132.016 125.96C132.016 125.96 133.177 126.393 134.541 126.064C135.653 125.798 136.738 125.17 137.505 124.979C137.589 125.228 137.674 125.48 137.691 125.747C137.738 126.501 136.682 126.654 135.464 126.68Z" fill="#304F7F"/>
<path d="M137.846 102C139.044 100.845 145.066 98.7051 148.98 97.6029C149.922 97.3377 159.147 93.2207 159.147 93.2207C159.147 93.2207 160.068 106.037 158.342 105.986C155.109 105.89 144.355 105.863 143.863 105.878C142.377 105.925 142.368 109.622 141.673 112.314C140.962 115.067 137.793 122.4 137.793 122.4C137.793 122.4 136.512 122.754 135.929 122.697C135.301 122.635 135.019 122.414 135.019 122.414C135.019 122.414 135.432 104.325 137.846 102Z" fill="#2B478B"/>
<path d="M148.621 81.8276C148.61 81.8391 150.23 82.0643 151.16 81.4195C152.035 80.8136 152.456 79.1032 152.443 79.1055C152.004 79.1695 151.453 78.8814 150.605 76.46L150.432 76.5617L147.532 78.2801C147.532 78.2801 147.95 79.2347 148.28 80.1562C148.556 80.9302 148.769 81.6813 148.621 81.8276Z" fill="#FFB27D"/>
<path d="M147.532 78.279C147.532 78.279 147.593 78.4825 147.983 79.3708C149.623 78.4001 150.23 77.5827 150.582 76.748L147.532 78.279Z" fill="#ED975D"/>
<path d="M146.903 78.6021C146.903 78.6021 151.247 78.0499 150.861 75.354C150.475 72.6581 150.775 70.7717 147.985 71.0106C145.196 71.2496 144.805 72.3551 144.715 73.2858C144.625 74.2164 145.764 78.6764 146.903 78.6021Z" fill="#FFB27D"/>
<path d="M144.883 71.8104C144.883 71.8104 147.645 74.2193 149.533 74.4251C151.421 74.6309 152.141 74.0295 152.141 74.0295C152.141 74.0295 151.033 73.0989 150.373 71.6046C150.178 71.1645 149.762 70.8603 149.282 70.8158C147.935 70.6888 145.376 70.6191 144.883 71.8104Z" fill="#233862"/>
<path d="M146.618 71.6087C146.618 71.6087 145.682 72.4993 145.385 73.1635C145.099 73.8038 145.004 75.3392 145.224 75.9509C145.224 75.9509 143.795 73.1304 144.624 71.7699C145.502 70.327 146.618 71.6087 146.618 71.6087Z" fill="#233862"/>
<path d="M146.575 88.7341C148.695 97.247 144.984 95.5893 146.109 96.1826C146.381 96.3255 148.065 98.7287 152.942 98.7939C155.641 98.8305 159.302 97.7444 159.365 97.2196C159.581 95.4041 157.996 91.3488 157.903 88.6678C157.891 88.3831 157.888 88.0722 157.89 87.7337C157.901 85.8747 158.171 85.1796 156.017 82.6975C154.064 80.4487 151.99 78.7395 151.877 78.8412C148.878 81.5966 148.222 80.0062 148.222 80.0062L147.704 80.2578C147.101 81.3965 145.712 85.2677 146.575 88.7341Z" fill="#F9DDBF"/>
<path d="M147.708 80.2578C147.708 80.2578 144.752 81.512 144.689 83.1926C144.626 84.8733 142.887 97.5729 142.887 97.5729C142.887 97.5729 147.723 96.8927 148.386 95.8294C148.917 94.9765 148.348 88.4518 148.102 85.908C148.035 85.2185 148.02 84.5269 148.058 83.8352L147.708 80.2578Z" fill="#F99746"/>
<path d="M160.545 105.331C160.545 105.331 158.171 108.603 151.221 107.706C151.221 107.706 150.388 101.193 150.424 95.4075C150.431 94.1636 150.48 92.9529 150.584 91.8496C150.589 91.8039 150.592 91.7547 150.599 91.7067C150.928 88.3431 152.118 78.9521 152.118 78.9521L154.651 81.3679L157.849 81.5017C157.849 81.5017 158.805 83.9632 159.618 93.2216C160.274 100.71 160.545 105.331 160.545 105.331Z" fill="#F99746"/>
<path d="M139.486 90.2441C139.486 90.2441 138.809 90.849 138.614 90.9004C138.419 90.9519 138.307 90.9096 138.307 90.9096L138.798 90.3139L139.486 90.2441Z" fill="#FFB27D"/>
<path d="M139.745 89.541L138.012 90.0223C138.012 90.0223 138.059 90.1457 138.257 90.172C138.455 90.1995 138.983 90.1092 138.983 90.1092L139.745 89.541Z" fill="#FFB27D"/>
<path d="M142.719 90.4453C142.719 90.4453 140.211 89.3854 139.747 89.5398C139.284 89.6941 138.097 90.3492 137.914 90.619C137.731 90.8888 138.894 90.5676 139.258 90.539C139.494 90.5196 140.049 90.834 140.324 90.9849C141.483 91.6217 142.278 91.5485 142.278 91.5485L142.719 90.4453Z" fill="#FFB27D"/>
<path d="M181.575 81.9219C181.575 81.9219 180.633 90.7412 173.428 90.819L173.339 84.5937L181.575 81.9219Z" fill="#ED7D2B"/>
<path d="M173.471 83.1593L173.467 83.8956C173.781 83.9619 174.552 84.0145 176.008 83.5068C178.011 82.8094 176.814 77.637 176.587 79.4984C176.301 81.8479 174.12 82.8974 173.471 83.1593Z" fill="#ED7D2B"/>
<path d="M157.397 86.0166C157.397 86.0166 157.213 93.1084 155.284 94.2769C153.777 95.1869 151.393 95.3721 150.423 95.4087C150.43 94.1648 150.479 92.9541 150.583 91.8508C150.588 91.8051 150.591 91.7559 150.598 91.7079L157.397 86.0166Z" fill="#ED7D2B"/>
<path d="M152.115 78.9521C152.115 78.9521 156.014 79.4106 157.224 80.3996C159.532 82.2871 155.816 91.1968 154.203 92.9849C152.387 94.9982 142.148 92.4361 142.148 92.4361C142.148 92.4361 141.608 91.2128 142.717 90.4445C143.008 90.2433 151.238 89.8534 151.443 89.5242C151.648 89.1949 152.828 84.0524 152.641 83.2521C152.454 82.4518 152.115 78.9521 152.115 78.9521Z" fill="#F99746"/>
<path d="M121.442 86.9688C120.538 86.9688 119.805 87.7005 119.805 88.6037V126.939H123.213V88.7363C123.213 87.7599 122.42 86.9688 121.442 86.9688Z" fill="#29ABE2"/>
<path d="M119.805 94.5923H147.201C147.818 94.5923 148.318 94.0926 148.318 93.4764C148.318 92.723 147.706 92.1113 146.951 92.1113H119.805V94.5923Z" fill="#29ABE2"/>
<path d="M166.829 69.0605C165.924 69.0605 165.191 69.7923 165.191 70.6954V109.031H168.599V70.8281C168.599 69.8517 167.806 69.0605 166.829 69.0605Z" fill="#29ABE2"/>
<path d="M222.946 46.959C222.041 46.959 221.309 47.6907 221.309 48.5939V89.9478H224.716V48.7265C224.716 47.7501 223.924 46.959 222.946 46.959Z" fill="#29ABE2"/>
<path d="M297.066 150.51V150.689C297.066 150.916 296.909 151.099 296.718 151.099H3.08249C2.89126 151.099 2.73438 150.916 2.73438 150.689V150.51C2.73438 150.286 2.89126 150.101 3.08249 150.101H296.718C296.909 150.101 297.066 150.286 297.066 150.51Z" fill="#233862"/>
</svg>
